<?xml version="1.0" encoding="utf-8"?>
<!-- Generator: Adobe Illustrator 16.0.0, SVG Export Plug-In . SVG Version: 6.00 Build 0)  -->
<!DOCTYPE svg PUBLIC "-//W3C//DTD SVG 1.1//EN" "http://www.w3.org/Graphics/SVG/1.1/DTD/svg11.dtd">
<svg version="1.1" id="OBJECTS" xmlns="http://www.w3.org/2000/svg" xmlns:xlink="http://www.w3.org/1999/xlink" x="0px" y="0px"
	 width="455px" height="393px" viewBox="0 0 455 393" enable-background="new 0 0 455 393" xml:space="preserve">
<g opacity="0.4">
	<rect x="-25" y="-67" display="none" fill="#5046AF" width="500" height="500"/>
	<g>
		<path fill="none" stroke="#D2AFFF" stroke-width="0.7557" stroke-miterlimit="10" d="M105.596,247.213
			c-0.466,0-0.928,0.012-1.389,0.028c0.384-1.534,0.592-3.126,0.592-4.761c0-12.262-11.381-22.201-25.42-22.201
			c-13.848,0-25.101,9.671-25.406,21.701c-10.436,4.695-17.647,14.729-17.647,26.352c0,16.12,13.872,29.188,30.983,29.188
			c7.407,0,14.205-2.452,19.536-6.538c5.135,3.384,11.653,5.412,18.752,5.412c16.555,0,29.976-11.01,29.976-24.591
			S122.151,247.213,105.596,247.213z"/>
		
			<line fill="none" stroke="#D2AFFF" stroke-width="0.7557" stroke-miterlimit="10" x1="86.812" y1="258.9" x2="86.812" y2="323.566"/>
		<polyline fill="none" stroke="#D2AFFF" stroke-width="0.7557" stroke-miterlimit="10" points="57.044,268.596 86.812,283.101 
			111.295,269.405 		"/>
		<polyline fill="none" stroke="#D2AFFF" stroke-width="0.7557" stroke-miterlimit="10" points="72.923,242.917 86.812,268.596 
			98.063,257.609 		"/>
	</g>
	<path fill="#6E64C3" d="M100.328,116.808h-0.012c-1.48,0-2.455-1.466-1.975-2.867c0.43-1.254,0.567-2.644,0.328-4.092
		c-0.669-4.039-4.328-6.905-8.422-6.905H45.054c-4.115,0-7.797,2.889-8.442,6.953c-0.826,5.197,3.167,9.682,8.208,9.682h0.501
		c3.377,0,5.997,2.794,5.97,6.172c0,0.024,0,0.048,0,0.072l0,0c0,4.979,4.037,9.016,9.016,9.016h40.022
		c4.979,0,9.016-4.036,9.016-9.016l0,0C109.344,120.844,105.308,116.808,100.328,116.808z"/>
	<g>
		<path fill="none" stroke="#D2AFFF" stroke-width="0.8641" stroke-miterlimit="10" d="M408.666,239.388
			c-1.185-1.186-3.768-1.188-6.66-0.677c-4.096,0.726-7.104-3.74-4.922-7.281c4.6-7.465,9.197-16.327,6.816-18.708
			c-2.214-2.214-10.895,0.57-16.696,2.789c-2.795,1.069-5.877-0.631-6.451-3.568c-1.765-9.037-5.581-25.469-10.005-25.469
			c-4.438,0-8.264,16.533-10.021,25.552c-0.566,2.908-3.603,4.62-6.382,3.596c-6.176-2.277-15.787-5.276-18.164-2.899
			c-2.381,2.381,2.217,11.242,6.817,18.708c2.182,3.541-0.827,8.007-4.922,7.281c-2.893-0.512-5.476-0.509-6.661,0.677
			c-4.922,4.922,2.378,20.2,16.304,34.127c2.419,2.419,4.878,4.635,7.316,6.624c1.233,1.005,1.877,2.569,1.726,4.153
			c-0.228,2.377,0.232,4.283,1.475,5.525c1.979,1.98,5.638,1.978,10.207,0.366c1.033-0.364,2.164-0.364,3.197,0
			c4.569,1.611,8.227,1.614,10.206-0.366c1.243-1.242,1.703-3.148,1.476-5.525c-0.152-1.584,0.491-3.148,1.725-4.153
			c2.438-1.989,4.898-4.205,7.317-6.624C406.289,259.588,413.588,244.31,408.666,239.388z"/>
		
			<line fill="none" stroke="#D2AFFF" stroke-width="0.8641" stroke-miterlimit="10" x1="370.041" y1="211.892" x2="370.041" y2="324.875"/>
		<polyline fill="none" stroke="#D2AFFF" stroke-width="0.8641" stroke-miterlimit="10" points="385.217,227.407 370.041,242.584 
			354.864,227.407 		"/>
		<polyline fill="none" stroke="#D2AFFF" stroke-width="0.8641" stroke-miterlimit="10" points="385.217,255.876 370.041,271.053 
			354.864,255.876 		"/>
	</g>
	<path fill="#6E64C3" d="M414.104,313.644c0-6.442-5.224-11.665-11.666-11.665H257.035v23.331h145.402
		C408.88,325.31,414.104,320.087,414.104,313.644L414.104,313.644z"/>
	<path fill="none" stroke="#D2AFFF" stroke-width="0.8641" stroke-miterlimit="10" d="M380.191,47.416
		c-0.052-3.292-2.885-5.869-6.178-5.869c-7.586,0.001-13.204-0.005-17.079-0.011c-3.318-0.006-6.172-2.468-6.532-5.767
		c-0.273-2.499-1.258-4.865-4.008-4.865h-34.911c-3.258,0-6.06,2.548-6.111,5.805c-0.052,3.302,2.609,5.995,5.899,5.995
		c0.325,0.001,0.861,0.003,1.488,0.006c0.443,0.002,0.892,0.048,1.316,0.179c2.649,0.814,4.012,3.523,3.234,6.04
		c-0.623,2.015-2.568,3.329-4.678,3.333c-3.126,0.008-6.599,0.016-6.57,0.016c-3.109,0-5.785,2.433-5.834,5.542
		c-0.049,3.152,2.491,5.722,5.632,5.722h59.701c3.975,0,6.311-3.47,5.761-6.655c-0.304-1.764,0.958-3.402,2.748-3.41
		c0.104,0,0.157-0.001,0.157-0.001C377.554,53.477,380.244,50.754,380.191,47.416z"/>
	<path fill="none" stroke="#D2AFFF" stroke-width="0.8641" stroke-miterlimit="10" d="M402.552,53.114h-6.277
		c-2.88,0-5.214,2.335-5.214,5.214l0,0c0,2.88,2.334,5.214,5.214,5.214h6.277c2.88,0,5.215-2.334,5.215-5.214l0,0
		C407.767,55.449,405.432,53.114,402.552,53.114z"/>
	<path fill="none" stroke="#D2AFFF" stroke-width="0.8641" stroke-miterlimit="10" d="M290.088,42.169h-7.17
		c-3.11,0-5.633-2.521-5.633-5.632l0,0c0-3.111,2.522-5.632,5.633-5.632h7.17c3.11,0,5.632,2.521,5.632,5.632l0,0
		C295.72,39.647,293.198,42.169,290.088,42.169z"/>
	<g>
		<path fill="none" stroke="#D2AFFF" stroke-width="0.8641" stroke-miterlimit="10" d="M407.844,131.405v-5.874
			c0-3.489-2.828-6.316-6.317-6.316h-0.22c-2.688,0-5.036-1.717-5.964-4.239c-0.354-0.96-0.743-1.903-1.168-2.826
			c-1.124-2.442-0.682-5.316,1.22-7.218l0.152-0.153c2.467-2.467,2.467-6.466,0-8.933l-4.153-4.153
			c-2.467-2.467-6.466-2.467-8.933,0l-0.153,0.153c-1.901,1.901-4.775,2.344-7.218,1.219c-0.923-0.425-1.866-0.815-2.826-1.168
			c-2.522-0.928-4.238-3.276-4.238-5.963v-0.22c0-3.488-2.828-6.316-6.317-6.316h-5.874c-3.488,0-6.316,2.828-6.316,6.316v0.22
			c0,2.688-1.717,5.036-4.238,5.963c-0.961,0.354-1.903,0.743-2.826,1.168c-2.442,1.125-5.316,0.682-7.218-1.219l-0.153-0.153
			c-2.467-2.467-6.466-2.467-8.933,0l-4.153,4.153c-2.467,2.467-2.467,6.466,0,8.933l0.152,0.153
			c1.901,1.901,2.344,4.775,1.22,7.218c-0.425,0.923-0.815,1.866-1.168,2.826c-0.929,2.522-3.276,4.239-5.964,4.239h-0.22
			c-3.489,0-6.317,2.828-6.317,6.316v5.874c0,3.488,2.828,6.316,6.317,6.316h0.22c2.688,0,5.035,1.717,5.964,4.239
			c0.353,0.96,0.743,1.903,1.168,2.826c1.124,2.442,0.682,5.317-1.22,7.218l-0.152,0.153c-2.467,2.467-2.467,6.466,0,8.933
			l4.153,4.153c2.467,2.467,6.466,2.467,8.933,0l0.153-0.153c1.901-1.901,4.775-2.344,7.218-1.219
			c0.923,0.425,1.865,0.815,2.826,1.168c2.521,0.928,4.238,3.276,4.238,5.964v0.22c0,3.488,2.828,6.316,6.316,6.316h5.874
			c3.489,0,6.317-2.828,6.317-6.316v-0.22c0-2.688,1.716-5.036,4.238-5.964c0.96-0.354,1.902-0.743,2.826-1.168
			c2.442-1.125,5.316-0.682,7.218,1.219l0.153,0.153c2.467,2.467,6.466,2.467,8.933,0l4.153-4.153c2.467-2.467,2.467-6.466,0-8.933
			l-0.152-0.153c-1.901-1.901-2.344-4.775-1.22-7.218c0.425-0.923,0.814-1.866,1.168-2.826c0.928-2.522,3.276-4.239,5.964-4.239
			h0.22C405.016,137.722,407.844,134.894,407.844,131.405z"/>
		<circle fill="none" stroke="#D2AFFF" stroke-width="0.8641" stroke-miterlimit="10" cx="358.771" cy="128.468" r="25.518"/>
	</g>
	<g>
		<path fill="none" stroke="#D2AFFF" stroke-width="0.7557" stroke-miterlimit="10" d="M99.455,187.631v-2.771
			c0-1.646-1.334-2.979-2.98-2.979h-0.104c-1.268,0-2.375-0.81-2.813-1.999c-0.167-0.453-0.351-0.898-0.551-1.334
			c-0.531-1.152-0.322-2.508,0.575-3.404l0.072-0.072c1.164-1.164,1.164-3.051,0-4.214l-1.959-1.96c-1.164-1.163-3.05-1.163-4.214,0
			l-0.072,0.072c-0.897,0.897-2.253,1.105-3.405,0.576c-0.435-0.201-0.88-0.385-1.333-0.552c-1.189-0.438-2-1.546-2-2.813v-0.104
			c0-1.646-1.334-2.979-2.979-2.979h-2.771c-1.646,0-2.98,1.334-2.98,2.979v0.104c0,1.268-0.81,2.376-2,2.813
			c-0.453,0.167-0.897,0.351-1.333,0.552c-1.152,0.529-2.508,0.321-3.405-0.576l-0.072-0.072c-1.164-1.163-3.05-1.163-4.214,0
			l-1.959,1.96c-1.164,1.163-1.164,3.05,0,4.214l0.072,0.072c0.897,0.896,1.105,2.252,0.575,3.404
			c-0.201,0.436-0.385,0.881-0.551,1.334c-0.438,1.189-1.545,1.999-2.813,1.999h-0.104c-1.646,0-2.979,1.334-2.979,2.979v2.771
			c0,1.646,1.334,2.979,2.979,2.979h0.104c1.268,0,2.375,0.81,2.813,2c0.167,0.452,0.351,0.897,0.551,1.333
			c0.53,1.152,0.322,2.508-0.575,3.404l-0.072,0.072c-1.164,1.164-1.164,3.051,0,4.214l1.959,1.96c1.164,1.163,3.05,1.163,4.214,0
			l0.072-0.072c0.897-0.897,2.253-1.105,3.405-0.575c0.436,0.2,0.88,0.384,1.333,0.551c1.19,0.438,2,1.546,2,2.813v0.104
			c0,1.646,1.334,2.979,2.98,2.979h2.771c1.646,0,2.979-1.334,2.979-2.979v-0.104c0-1.268,0.81-2.376,2-2.813
			c0.453-0.167,0.898-0.351,1.333-0.551c1.152-0.53,2.508-0.322,3.405,0.575l0.072,0.072c1.164,1.163,3.05,1.163,4.214,0l1.959-1.96
			c1.164-1.163,1.164-3.05,0-4.214l-0.072-0.072c-0.897-0.896-1.106-2.252-0.575-3.404c0.2-0.436,0.384-0.881,0.551-1.333
			c0.438-1.19,1.545-2,2.813-2h0.104C98.121,190.61,99.455,189.276,99.455,187.631z"/>
		<circle fill="none" stroke="#D2AFFF" stroke-width="0.7557" stroke-miterlimit="10" cx="76.306" cy="186.245" r="12.037"/>
	</g>
	<g>
		<path fill="none" stroke="#D2AFFF" stroke-width="0.7557" stroke-miterlimit="10" d="M60.371,165.952l0.255-1.926
			c0.151-1.144-0.653-2.194-1.796-2.345l-0.072-0.01c-0.881-0.117-1.577-0.782-1.771-1.649c-0.074-0.33-0.161-0.656-0.26-0.977
			c-0.263-0.85,0.007-1.773,0.713-2.314l0.057-0.043c0.916-0.702,1.09-2.013,0.388-2.929l-1.181-1.542
			c-0.702-0.916-2.013-1.09-2.929-0.388l-0.057,0.043c-0.706,0.541-1.667,0.561-2.419,0.086c-0.284-0.18-0.576-0.348-0.876-0.506
			c-0.787-0.414-1.247-1.258-1.13-2.14l0.009-0.072c0.152-1.144-0.652-2.194-1.796-2.345l-1.926-0.255
			c-1.144-0.152-2.194,0.653-2.346,1.796l-0.009,0.072c-0.117,0.881-0.782,1.577-1.649,1.771c-0.331,0.074-0.656,0.161-0.978,0.26
			c-0.85,0.263-1.772-0.007-2.313-0.713l-0.043-0.057c-0.702-0.916-2.013-1.09-2.929-0.388l-1.542,1.181
			c-0.916,0.702-1.09,2.013-0.388,2.929l0.043,0.057c0.541,0.706,0.561,1.667,0.086,2.419c-0.179,0.284-0.348,0.576-0.505,0.875
			c-0.414,0.787-1.259,1.248-2.14,1.131l-0.072-0.01c-1.144-0.151-2.194,0.653-2.346,1.797l-0.255,1.926
			c-0.152,1.144,0.652,2.194,1.796,2.346l0.072,0.01c0.881,0.116,1.576,0.781,1.771,1.648c0.074,0.33,0.161,0.656,0.26,0.978
			c0.263,0.85-0.007,1.772-0.713,2.313l-0.057,0.043c-0.916,0.702-1.09,2.014-0.388,2.93l1.182,1.542
			c0.702,0.916,2.013,1.09,2.929,0.388l0.057-0.043c0.706-0.541,1.668-0.561,2.42-0.086c0.284,0.18,0.576,0.348,0.875,0.506
			c0.787,0.414,1.248,1.258,1.131,2.139l-0.01,0.072c-0.151,1.145,0.653,2.194,1.796,2.346l1.926,0.256
			c1.144,0.151,2.194-0.653,2.345-1.797l0.01-0.072c0.117-0.881,0.782-1.576,1.649-1.771c0.33-0.074,0.656-0.16,0.977-0.26
			c0.85-0.263,1.773,0.008,2.313,0.713l0.044,0.058c0.702,0.916,2.013,1.089,2.929,0.388l1.542-1.182
			c0.916-0.701,1.089-2.012,0.388-2.928l-0.043-0.058c-0.541-0.706-0.561-1.667-0.086-2.419c0.18-0.285,0.348-0.576,0.506-0.876
			c0.414-0.786,1.258-1.247,2.14-1.131l0.072,0.01C59.169,167.9,60.22,167.096,60.371,165.952z"/>
		<circle fill="none" stroke="#D2AFFF" stroke-width="0.7557" stroke-miterlimit="10" cx="44.409" cy="162.857" r="8.44"/>
	</g>
	<path fill="#6E64C3" d="M420.439,325.31h-23.042c-3.5,0-6.337-2.837-6.337-6.337l0,0c0-3.5,2.837-6.337,6.337-6.337h23.042
		c3.5,0,6.337,2.837,6.337,6.337l0,0C426.776,322.473,423.939,325.31,420.439,325.31z"/>
</g>
<g>
	<path fill="#EE7174" d="M361.073,314.305c0,6.204-5.029,11.233-11.233,11.233H94.927c-6.204,0-11.233-5.029-11.233-11.233V137.162
		c0-6.204,5.029-11.233,11.233-11.233H349.84c6.204,0,11.233,5.029,11.233,11.233V314.305z"/>
	<g>
		<path fill="#1E2D64" d="M349.84,137.162v177.143H94.927V137.162H349.84 M349.84,125.928H94.927
			c-6.204,0-11.233,5.029-11.233,11.233v177.143c0,6.204,5.029,11.233,11.233,11.233H349.84c6.204,0,11.233-5.029,11.233-11.233
			V137.162C361.073,130.958,356.044,125.928,349.84,125.928L349.84,125.928z"/>
	</g>
	<g>
		<path fill="#FFFFFF" d="M321.324,301.486c0,4.216-3.418,7.634-7.633,7.634h-183.48c-4.215,0-7.633-3.418-7.633-7.634v-143.73
			c0-4.215,3.417-7.633,7.633-7.633h183.48c4.215,0,7.633,3.417,7.633,7.633V301.486z"/>
	</g>
	<g>
		<path fill="#F9B000" d="M313.691,150.124h-183.48c-4.215,0-7.633,3.417-7.633,7.633v13.97h198.746v-13.97
			C321.324,153.541,317.906,150.124,313.691,150.124z"/>
	</g>
	<path opacity="0.4" fill="#6C9BAA" d="M193.265,311.787l-64.977-18.757c-1.97-0.568-3.105-2.626-2.537-4.596l28.616-99.134
		c0.568-1.97,2.626-3.106,4.596-2.537l64.977,18.756c1.97,0.568,3.105,2.626,2.537,4.596l-28.616,99.135
		C197.292,311.22,195.235,312.355,193.265,311.787z"/>
	<path fill="#EF7A78" d="M191.083,307.688l-64.977-18.756c-1.97-0.569-3.105-2.627-2.537-4.597l28.616-99.134
		c0.569-1.97,2.626-3.105,4.596-2.537l64.977,18.756c1.97,0.568,3.106,2.626,2.537,4.596l-28.616,99.134
		C195.11,307.12,193.052,308.256,191.083,307.688z"/>
	<g>
		<path fill="#D2AFFF" d="M210.594,190.737v108.877h-73.326V190.737H210.594 M211.458,189.873h-75.054v110.606h75.054V189.873
			L211.458,189.873z"/>
	</g>
	<g>
		
			<line fill="none" stroke="#8841E6" stroke-width="2.8043" stroke-linecap="round" stroke-miterlimit="10" x1="295.688" y1="156.46" x2="308.074" y2="156.46"/>
		
			<line fill="none" stroke="#8841E6" stroke-width="2.8043" stroke-linecap="round" stroke-miterlimit="10" x1="295.688" y1="161.368" x2="308.074" y2="161.368"/>
		
			<line fill="none" stroke="#8841E6" stroke-width="2.8043" stroke-linecap="round" stroke-miterlimit="10" x1="295.688" y1="166.275" x2="308.074" y2="166.275"/>
	</g>
	<path fill="#EF7A78" d="M277.531,166.275h-84.085c-2.71,0-4.907-2.197-4.907-4.908l0,0c0-2.71,2.197-4.908,4.907-4.908h84.085
		c2.711,0,4.908,2.197,4.908,4.908l0,0C282.439,164.078,280.242,166.275,277.531,166.275z"/>
	<g>
		
			<line fill="none" stroke="#FFFFFF" stroke-width="1.8724" stroke-linecap="round" stroke-miterlimit="10" x1="134.664" y1="158.681" x2="130.176" y2="163.168"/>
		
			<line fill="none" stroke="#FFFFFF" stroke-width="1.8724" stroke-linecap="round" stroke-miterlimit="10" x1="134.664" y1="163.168" x2="130.176" y2="158.681"/>
	</g>
	<path fill="none" stroke="#FFFFFF" stroke-width="1.8724" stroke-linecap="round" stroke-miterlimit="10" d="M153.759,163.168
		L153.759,163.168c-1.239,0-2.244-1.004-2.244-2.244l0,0c0-1.239,1.004-2.244,2.244-2.244l0,0c1.239,0,2.244,1.005,2.244,2.244l0,0
		C156.003,162.164,154.999,163.168,153.759,163.168z"/>
	
		<line fill="none" stroke="#FFFFFF" stroke-width="1.8724" stroke-linecap="round" stroke-miterlimit="10" x1="140.397" y1="160.925" x2="145.205" y2="160.925"/>
	<rect x="179.063" y="325.538" fill="#0F1446" width="93.671" height="21.314"/>
	<path fill="#1E2D64" d="M301.882,359.526H148.575l0,0c0-7,5.674-12.674,12.674-12.674h127.959
		C296.207,346.853,301.882,352.526,301.882,359.526L301.882,359.526z"/>
	<path fill="none" stroke="#D2AFFF" stroke-width="0.8641" stroke-miterlimit="10" d="M284.924,245.678h-54.737
		c-2.764,0-5.003-2.24-5.003-5.004l0,0c0-2.763,2.24-5.004,5.003-5.004h54.737c2.764,0,5.004,2.241,5.004,5.004l0,0
		C289.928,243.438,287.688,245.678,284.924,245.678z"/>
	<path fill="none" stroke="#D2AFFF" stroke-width="0.8641" stroke-miterlimit="10" d="M284.924,263.824h-54.737
		c-2.764,0-5.003-2.24-5.003-5.004l0,0c0-2.764,2.24-5.004,5.003-5.004h54.737c2.764,0,5.004,2.24,5.004,5.004l0,0
		C289.928,261.584,287.688,263.824,284.924,263.824z"/>
	<path fill="none" stroke="#D2AFFF" stroke-width="0.8641" stroke-miterlimit="10" d="M301.845,245.678L301.845,245.678
		c-2.764,0-5.004-2.24-5.004-5.004l0,0c0-2.763,2.24-5.004,5.004-5.004l0,0c2.764,0,5.004,2.241,5.004,5.004l0,0
		C306.849,243.438,304.608,245.678,301.845,245.678z"/>
	<path fill="none" stroke="#D2AFFF" stroke-width="0.8641" stroke-miterlimit="10" d="M301.845,263.824L301.845,263.824
		c-2.764,0-5.004-2.24-5.004-5.004l0,0c0-2.764,2.24-5.004,5.004-5.004l0,0c2.764,0,5.004,2.24,5.004,5.004l0,0
		C306.849,261.584,304.608,263.824,301.845,263.824z"/>
	<path fill="none" stroke="#D2AFFF" stroke-width="0.8641" stroke-miterlimit="10" d="M289.928,277.831
		c0,2.764-2.24,5.004-5.004,5.004h-54.737c-2.764,0-5.003-2.24-5.003-5.004l0,0c0-2.764,2.24-5.004,5.003-5.004h54.737
		C287.688,272.827,289.928,275.067,289.928,277.831L289.928,277.831z"/>
	<path fill="none" stroke="#D2AFFF" stroke-width="0.8641" stroke-miterlimit="10" d="M289.928,295.978
		c0,2.764-2.24,5.004-5.004,5.004h-54.737c-2.764,0-5.003-2.24-5.003-5.004l0,0c0-2.764,2.24-5.004,5.003-5.004h54.737
		C287.688,290.974,289.928,293.214,289.928,295.978L289.928,295.978z"/>
	<path fill="none" stroke="#D2AFFF" stroke-width="0.8641" stroke-miterlimit="10" d="M301.845,282.835L301.845,282.835
		c-2.764,0-5.004-2.24-5.004-5.004l0,0c0-2.764,2.24-5.004,5.004-5.004l0,0c2.764,0,5.004,2.24,5.004,5.004l0,0
		C306.849,280.595,304.608,282.835,301.845,282.835z"/>
	<path fill="none" stroke="#D2AFFF" stroke-width="0.8641" stroke-miterlimit="10" d="M306.849,295.978
		c0,2.764-2.24,5.004-5.004,5.004l0,0c-2.764,0-5.004-2.24-5.004-5.004l0,0c0-2.764,2.24-5.004,5.004-5.004l0,0
		C304.608,290.974,306.849,293.214,306.849,295.978L306.849,295.978z"/>
	<g>
		<path fill="#FA968C" d="M121.7,283.749c1.214,2.904,3.876,7.466,7.12,10.08c3.604,2.942,7.292,2.505,11.07,0.016
			c0.387-0.256,0.834-0.127,1.049,0.198c0.201,0.305,0.148,0.702-0.105,0.945c-8.584,8.248-18.522,1.037-23.841-9.068
			c-1.597-3.033,2.995-5.456,4.594-2.418c0.035,0.067,0.067,0.135,0.096,0.204L121.7,283.749z"/>
		<path fill="#FA870A" d="M124.742,289.256c-0.004-0.007-0.009-0.013-0.014-0.02c-2.021-2.959-2.616-4.734-3.143-5.734
			c-0.668-1.269-2.238-1.756-3.506-1.088s-1.755,2.237-1.088,3.506c1.099,2.088,2.214,3.666,3.407,5.164
			C120.781,290.676,123.828,289.583,124.742,289.256z"/>
		<path fill="#FAB9AF" d="M120.66,301.673c1.033-0.003,1.884-0.822,1.909-1.854c0.03-1.217,0.117-2.484,0.01-3.776
			c-0.373-4.483-0.75-9.056-0.967-11.686c-0.105-1.269-1.164-2.241-2.437-2.241h-8.277c-1.372,0-2.494,1.087-2.534,2.458
			c-0.097,3.321-0.308,9.47-0.675,15.04c0,0.007,0,0.014-0.001,0.021c-0.074,1.117,0.794,2.07,1.913,2.067L120.66,301.673z"/>
		<path fill="#FA968C" d="M118.103,356.745c-0.896-1.017-1.119-3.304-1.114-5.373c0.003-1.224-1.555-1.748-2.309-0.783l0,0
			l-0.017,6.467C115.902,357.396,117.328,357.396,118.103,356.745z"/>
		<path fill="#46738C" d="M117.939,356.652c-0.012-0.004-0.022-0.012-0.034-0.018c-0.532,0.199-1.132,0.316-1.807,0.316
			c-0.579,0-1.104-0.084-1.578-0.232l-0.266,1.494c-0.077,0.432,0.243,0.832,0.682,0.846c2.099,0.064,7.474,0.206,7.617-0.027
			C123.228,357.938,120.174,357.518,117.939,356.652z"/>
		<path fill="#1C9585" d="M114.283,330.69c-0.275,1.962-0.319,14.53,0.122,20.915l2.706,0.026
			c1.354-6.193,2.615-18.224,2.883-20.142c0.004-0.024,0.005-0.048,0.008-0.072c1.506-6.664,2.253-19.639,2.194-22.266
			c-0.081-3.563-2.391-6.401-5.159-6.339s-4.947,3.002-4.866,6.566C112.222,311.617,114.413,329.762,114.283,330.69z"/>
		<path fill="#177D74" d="M122.196,309.152c-0.081-3.563-2.391-6.402-5.159-6.339c-2.769,0.062-4.947,3.002-4.866,6.566
			c0.037,1.623,1.201,11.621,1.787,17.34c0.56-1.302,1.164-2.603,1.726-3.909c0.253-4.549,2.834-8.623,6.465-11.277
			C122.191,310.462,122.208,309.633,122.196,309.152z"/>
		<path fill="#FAB9AF" d="M102.205,355.758c-0.199-1.931,0.681-4.107,1.456-6.172l0,0c-0.481-1.057-1.985-1.047-2.452,0.016
			l-1.677,3.817c-0.055,0.125-0.061,0.272-0.004,0.396C100.083,355.036,101.41,355.669,102.205,355.758z"/>
		<path fill="#46738C" d="M103.681,357.082c-0.652-0.318-1.143-0.871-1.413-1.527c-1.278-0.414-2.166-1.318-2.667-2.413
			c-0.257,0.208-0.527,0.455-0.695,0.7c-0.231,0.335-0.547,0.781-0.771,1.095c-0.158,0.222-0.13,0.523,0.064,0.714l1.006,0.985
			c0.192,0.188,2.093,1.829,2.585,1.896c1.263,0.17,3.596,0.44,3.675,0.14C105.602,358.149,104.6,357.53,103.681,357.082z"/>
		<path fill="#39AE96" d="M107.165,329.093c-0.683,1.541-4.849,14.555-6.325,20.896c0.65,0.589,1.457,1.054,2.399,0.991
			c2.571-5.028,8.687-15.96,9.834-18.453c2.077-3.101,4.355-20.776,4.28-24.079c-0.081-3.563-2.391-6.402-5.159-6.339
			c-2.769,0.062-5.448,2.942-5.367,6.506C106.879,310.92,107.626,328.051,107.165,329.093z"/>
		<path fill="#FFA50A" d="M119.248,282.115h-1.344c-0.468,1.083-1.458,1.92-2.995,1.92c-1.539,0-2.529-0.837-2.997-1.92h-1.227
			c-1.254,0-2.28,0.991-2.316,2.245c-0.094,3.267-0.239,7.502-0.613,13.193c-0.339,5.152-1.513,6.763-0.851,13.402
			c0,0,11.207,1.067,15.273-0.966c0.615-4.682,0.777-9.401,0.399-13.948c-0.376-4.525-0.758-9.143-0.974-11.76
			C121.504,283.056,120.479,282.115,119.248,282.115z"/>
		<path fill="#FA968C" d="M142.351,292.896c0,0-2.167-0.204-2.448,0.438c-0.281,0.641-0.353,1.122,0.564,1.566
			c0.917,0.444,2.387,0.616,3.29,0.544c0.902-0.073,2.363-0.834,2.465-1.019c0.374-0.673-1.247-0.369-2.039-0.26
			c-0.792,0.108-1.697,0.153-1.642-0.243c0.056-0.396,1.588-0.49,1.801-0.923C144.557,292.567,142.351,292.896,142.351,292.896z"/>
		<path fill="#FAB9AF" d="M112.684,284.8c3.605,8.084,21.224,7.536,26.499,7.616l0.042,0.001c0.411,0.006,0.738,0.344,0.732,0.755
			c-0.014,0.927-1.104,0.819-4.667,1.507c-24.669,4.84-31.685-11.52-25.705-12.215C111.426,282.249,112.684,284.8,112.684,284.8z"/>
		<g>
			<path fill="#FA870A" d="M115.429,287.769c-2.384-1.682-2.802-3.377-2.811-3.417l0.013,0.076l-0.184-0.424
				c-0.615-1.416-2.244-2.163-3.677-1.585c-0.021,0.009-0.043,0.018-0.064,0.026c-1.725,0.723-1.376,2.761-1.376,2.761
				c0.042,0.284,0.619,3.646,4.585,6.62C111.916,291.826,115.75,287.995,115.429,287.769z"/>
		</g>
		<path fill="#3C5A73" d="M113.613,278.334h-0.159c-1.21,0-2.19-0.98-2.19-2.19v-3.237h2.349V278.334z"/>
		<g>
			<polygon fill="#FAB9AF" points="116.602,282.115 112.277,282.115 113.523,277.803 116.472,278.167 			"/>
		</g>
		<path fill="#FA968C" d="M116.472,278.167l-2.949-0.364l-0.581,2.01c0.66,0.744,1.639,1.898,2.712,1.898
			c0.34,0,0.65-0.096,0.929-0.272L116.472,278.167z"/>
		<path fill="#FAB9AF" d="M115.628,280.171L115.628,280.171c-1.99,0-3.602-1.613-3.602-3.603v-4.013h6.178c0,0,0,3.133-0.45,5.247
			C117.417,279.389,116.642,280.171,115.628,280.171z"/>
		<path fill="#FAB9AF" d="M113.073,275.81c0,0.783-0.375,1.418-0.837,1.418c-0.462,0-0.972-1.026-0.972-1.81s0.51-1.026,0.972-1.026
			C112.698,274.392,113.073,275.026,113.073,275.81z"/>
		<path fill="#3C5A73" d="M118.834,270.552c0,0-1.377,0.367-3.216,0.223l-2.085-0.001c-1.253-0.001-2.269,1.016-2.269,2.269v0.485
			l0.67,0.873l0.65,1.016h0.082c0.398,0,0.723-0.31,0.748-0.701c0.041-0.646,0.487-1.188,1.135-1.188h1.851
			c1.126,0,1.712,0.605,1.712,1.448l-0.058,0.713C118.054,275.688,119.729,274.292,118.834,270.552z"/>
		<path fill="#FAB9AF" d="M140.896,292.521c0,0-2.107-0.543-2.486,0.045c-0.379,0.588-0.525,1.053,0.31,1.637
			c0.835,0.583,2.26,0.986,3.162,1.057c0.903,0.071,2.465-0.449,2.595-0.615c0.475-0.604-1.173-0.562-1.972-0.579
			c-0.799-0.018-1.7-0.117-1.583-0.499c0.117-0.383,1.645-0.233,1.924-0.627C143.125,292.546,140.896,292.521,140.896,292.521z"/>
	</g>
	<g>
		<path fill="#FA968C" d="M223.383,265.352c-2.142,1.142-4.611,0.433-6.039-1.539c-3.028-3.905-3.611-13.625-3.836-18.554
			c-0.042-0.913,1.291-1.067,1.471-0.182c0.587,2.901,1.113,5.419,1.746,7.822c0.57,2.104,2.811,9.765,4.648,8.628
			c2.266-1.484,4.636-8.25,4.271-7.25c0.491-1.347,1.98-2.04,3.327-1.549s2.04,1.98,1.549,3.327
			C230.155,257.056,227.16,263.499,223.383,265.352z"/>
		<path fill="#FFA0BE" d="M222.654,259.681c0.594-0.87,1.145-1.778,1.653-2.71c0.503-0.909,1.017-1.919,1.375-2.778l0.018-0.043
			c0.029-0.068,0.061-0.137,0.096-0.204c0.668-1.269,2.237-1.756,3.506-1.088s1.756,2.237,1.088,3.506
			c-0.626,1.19-1.232,2.163-1.925,3.188c-0.469,0.676-1.074,1.767-1.588,2.412C223.744,261.818,222.65,259.687,222.654,259.681z"/>
		<path fill="#FAB9AF" d="M225.285,278.129c0.056,0.52,0.414,0.941,0.91,1.106c3.176,1.054,7.986,1.621,13.188,2.071
			c0.75,0.065,1.41-0.512,1.424-1.264c0.04-2.105-0.853-6.023-1.113-9.986c-0.324-4.928-0.527-10.308-0.637-13.783
			c-0.065-2.074-1.766-3.715-3.841-3.715h-5.798c-1.956,0-3.584,1.494-3.746,3.443c-0.223,2.695-0.547,6.623-0.868,10.483
			C224.5,270.151,225.057,276,225.285,278.129z"/>
		<path fill="#FA968C" d="M232.703,321.032l-0.019,5.127l0.444,2.497c0.077,0.433-0.242,0.832-0.682,0.846
			c-2.099,0.064-7.473,0.206-7.617-0.027c-0.676-1.093,2.379-1.514,4.614-2.379c2.234-0.864,0.692-9.35,0.692-9.35L232.703,321.032z
			"/>
		<path fill="#F57A2F" d="M229.444,327.096c0.012-0.004,0.021-0.012,0.033-0.018c0.533,0.199,1.132,0.316,1.808,0.316
			c0.579,0,1.104-0.084,1.578-0.232l0.267,1.494c0.076,0.433-0.243,0.832-0.683,0.846c-2.099,0.064-7.473,0.206-7.617-0.027
			C224.155,328.382,227.209,327.961,229.444,327.096z"/>
		<path fill="#0091C8" d="M225.187,279.596c-0.081,3.563,1.32,26.172,4.089,26.235c2.769,0.062,5.855-22.444,5.937-26.008
			s-2.098-6.504-4.866-6.566S225.267,276.032,225.187,279.596z"/>
		<path fill="#0073AA" d="M233.1,301.134c0.274,1.962,0.319,14.53-0.122,20.915h-2.521c-1.354-6.193-2.8-18.197-3.068-20.115
			c-0.004-0.024-0.005-0.048-0.009-0.072c-1.506-6.663-2.253-19.638-2.193-22.266c0.081-3.563,2.391-6.401,5.159-6.339
			s4.947,3.003,4.866,6.566C235.161,282.061,232.97,300.205,233.1,301.134z"/>
		<path fill="#00558C" d="M231.678,292.903c0.616,1.494,1.18,3.013,1.718,4.549c0.576-5.664,1.779-15.978,1.816-17.629
			c0.081-3.563-2.098-6.504-4.866-6.566s-5.079,2.775-5.159,6.339c-0.011,0.48,0.005,1.31,0.048,2.381
			C228.771,284.562,231.314,288.496,231.678,292.903z"/>
		<path fill="#FA968C" d="M238.752,321.032l-0.019,5.127l0.445,2.497c0.076,0.433-0.243,0.832-0.683,0.846
			c-2.099,0.064-7.473,0.206-7.617-0.027c-0.676-1.093,2.379-1.514,4.613-2.379c2.235-0.864,0.693-9.35,0.693-9.35L238.752,321.032z
			"/>
		<path fill="#FF8C46" d="M235.492,327.096c0.013-0.004,0.022-0.012,0.034-0.018c0.532,0.199,1.132,0.316,1.808,0.316
			c0.579,0,1.104-0.084,1.578-0.232l0.267,1.494c0.076,0.433-0.243,0.832-0.683,0.846c-2.099,0.064-7.473,0.206-7.617-0.027
			C230.203,328.382,233.258,327.961,235.492,327.096z"/>
		<path fill="#0091C8" d="M231.235,279.596c-0.081,3.563,1.32,26.172,4.089,26.235c2.769,0.062,5.257-22.527,5.338-26.091
			s-1.499-6.421-4.268-6.483S231.315,276.032,231.235,279.596z"/>
		<path fill="#0091C8" d="M239.148,301.134c0.274,1.962,0.319,14.53-0.122,20.915h-2.521c-1.354-6.193-2.8-18.197-3.068-20.115
			c-0.004-0.024-0.005-0.048-0.009-0.072c-1.506-6.663-2.852-19.721-2.792-22.349c0.08-3.563,2.989-6.318,5.758-6.256
			s4.349,2.92,4.268,6.483C240.611,281.978,239.019,300.205,239.148,301.134z"/>
		<path fill="#FF82AA" d="M225.778,254.726c0.101-1.227,1.125-2.167,2.357-2.167h1.344c0.468,1.083,1.458,1.921,2.995,1.921
			c1.539,0,2.528-0.838,2.996-1.921h1.227c1.254,0,2.28,0.991,2.316,2.245c0.094,3.267,0.189,8.221,0.564,13.912
			c0.339,5.151,1.777,7.508,1.066,12.749c0,0-13.513,1.037-15.771-1.555c-0.25-2.688-0.446-8.878-0.068-13.425
			C225.181,261.96,225.562,257.343,225.778,254.726z"/>
		<path fill="#FA968C" d="M212.914,243.329c0,0,0.051,2.549,0.665,2.887c0.612,0.339,1.009,0.192,1.495-0.562
			c0.552-0.857,0.693-2.353,0.715-3.258c0.013-0.511-0.675-2.492-0.85-2.611c-0.636-0.433-0.286,1.404-0.249,2.202
			c0.037,0.799-0.211,1.229-0.601,1.138c-0.389-0.092-0.328-1.345-0.739-1.597C212.938,241.277,212.914,243.329,212.914,243.329z"/>
		<path fill="#FAB9AF" d="M239.506,256.775c-7.262,9.898-20.776,15.709-30.96,6.077c-0.639-0.604,0.128-1.621,0.883-1.186
			l0.033,0.02c4.688,2.706,9.001,3.884,14.387,1.621c4.5-1.939,8.551-5.743,11.449-9.562l0.054-0.07
			C237.404,250.971,241.515,254.033,239.506,256.775z"/>
		<g>
			<path fill="#FFA0BE" d="M231.511,257.867c1.741-1.562,3.956-4.643,3.956-4.643s1.05-1.24,3.21-0.336
				c1.726,0.723,1.376,2.761,1.376,2.761c-0.042,0.284-0.619,3.646-4.586,6.62C235.467,262.27,232.304,260.803,231.511,257.867z"/>
		</g>
		<path fill="#3C5A73" d="M232.83,249.548l0.154,0.034c1.181,0.263,2.352-0.481,2.614-1.663l0.702-3.159l-2.293-0.511
			L232.83,249.548z"/>
		<g>
			<polygon fill="#FAB9AF" points="230.781,252.559 235.106,252.559 233.859,248.246 230.911,248.61 			"/>
		</g>
		<path fill="#FA968C" d="M230.911,248.61l2.948-0.364l0.581,2.01c-0.66,0.744-1.639,1.898-2.712,1.898
			c-0.341,0-0.65-0.096-0.93-0.272L230.911,248.61z"/>
		<path fill="#FAB9AF" d="M230.465,250.903L230.465,250.903c1.941,0.432,3.866-0.793,4.298-2.734l0.871-3.918l-6.031-1.341
			c0,0-0.68,3.058-0.699,5.22C228.889,249.751,229.475,250.683,230.465,250.903z"/>
		<path fill="#FAB9AF" d="M233.904,247.2c-0.169,0.765,0.059,1.466,0.51,1.565c0.451,0.101,1.172-0.79,1.342-1.555
			s-0.274-1.112-0.727-1.213C234.578,245.897,234.075,246.437,233.904,247.2z"/>
		<path fill="#3C5A73" d="M228.826,244.428c-0.032-0.519,0.052-1.038,0.247-1.521l0,0c0.485-1.196,1.825-1.711,3.044-1.287
			c0.125,0.044,0.257,0.081,0.396,0.112l2.035,0.452c1.224,0.271,1.995,1.483,1.723,2.707l-0.105,0.474l-0.877,0.718l-0.821,0.839
			l-0.08-0.018c-0.389-0.086-0.639-0.459-0.578-0.847c0.101-0.64-0.218-1.265-0.85-1.405l-1.807-0.401
			c-1.1-0.244-1.803,0.219-1.985,1.041l-0.099,0.709L228.826,244.428z"/>
		<path fill="#FAB9AF" d="M207.887,260.571c0,0,0.151,2.171,0.829,2.345c0.678,0.173,1.165,0.166,1.455-0.812
			s0.221-2.456,0.002-3.334c-0.218-0.879-1.206-2.196-1.405-2.268c-0.724-0.26-0.161,1.29,0.075,2.054s0.427,1.649,0.027,1.659
			c-0.399,0.01-0.741-1.486-1.203-1.627C207.205,258.448,207.887,260.571,207.887,260.571z"/>
		<g>
			
				<line fill="none" stroke="#41B4E6" stroke-width="1.2962" stroke-linecap="round" stroke-miterlimit="10" x1="234.595" y1="267.672" x2="251.312" y2="359.526"/>
			
				<line fill="none" stroke="#41B4E6" stroke-width="1.2962" stroke-linecap="round" stroke-miterlimit="10" x1="226.565" y1="359.526" x2="209.849" y2="267.672"/>
			
				<line fill="none" stroke="#41B4E6" stroke-width="1.2962" stroke-linecap="round" stroke-miterlimit="10" x1="211.82" y1="275.049" x2="236.008" y2="275.049"/>
			
				<line fill="none" stroke="#41B4E6" stroke-width="1.2962" stroke-linecap="round" stroke-miterlimit="10" x1="213.428" y1="286.13" x2="237.954" y2="286.13"/>
			
				<line fill="none" stroke="#41B4E6" stroke-width="1.2962" stroke-linecap="round" stroke-miterlimit="10" x1="215.664" y1="297.21" x2="239.971" y2="297.21"/>
			
				<line fill="none" stroke="#41B4E6" stroke-width="1.2962" stroke-linecap="round" stroke-miterlimit="10" x1="217.826" y1="308.291" x2="241.987" y2="308.291"/>
			
				<line fill="none" stroke="#41B4E6" stroke-width="1.2962" stroke-linecap="round" stroke-miterlimit="10" x1="219.562" y1="319.371" x2="244.004" y2="319.371"/>
			
				<line fill="none" stroke="#41B4E6" stroke-width="1.2962" stroke-linecap="round" stroke-miterlimit="10" x1="221.203" y1="330.255" x2="245.984" y2="330.255"/>
			
				<line fill="none" stroke="#41B4E6" stroke-width="1.2962" stroke-linecap="round" stroke-miterlimit="10" x1="223.635" y1="341.533" x2="248.036" y2="341.533"/>
			
				<line fill="none" stroke="#41B4E6" stroke-width="1.2962" stroke-linecap="round" stroke-miterlimit="10" x1="225.307" y1="352.613" x2="249.775" y2="352.613"/>
		</g>
		<g>
			
				<line fill="none" stroke="#A8E5FF" stroke-width="1.2962" stroke-linecap="round" stroke-miterlimit="10" x1="209.849" y1="267.672" x2="193.132" y2="359.526"/>
			
				<line fill="none" stroke="#A8E5FF" stroke-width="1.2962" stroke-linecap="round" stroke-miterlimit="10" x1="217.878" y1="359.526" x2="234.595" y2="267.672"/>
			
				<line fill="none" stroke="#A8E5FF" stroke-width="1.2962" stroke-linecap="round" stroke-miterlimit="10" x1="232.623" y1="275.049" x2="208.506" y2="275.049"/>
			
				<line fill="none" stroke="#A8E5FF" stroke-width="1.2962" stroke-linecap="round" stroke-miterlimit="10" x1="231.016" y1="286.13" x2="206.49" y2="286.13"/>
			
				<line fill="none" stroke="#A8E5FF" stroke-width="1.2962" stroke-linecap="round" stroke-miterlimit="10" x1="228.78" y1="297.21" x2="204.473" y2="297.21"/>
			
				<line fill="none" stroke="#A8E5FF" stroke-width="1.2962" stroke-linecap="round" stroke-miterlimit="10" x1="226.618" y1="308.291" x2="202.457" y2="308.291"/>
			
				<line fill="none" stroke="#A8E5FF" stroke-width="1.2962" stroke-linecap="round" stroke-miterlimit="10" x1="224.882" y1="319.371" x2="200.44" y2="319.371"/>
			
				<line fill="none" stroke="#A8E5FF" stroke-width="1.2962" stroke-linecap="round" stroke-miterlimit="10" x1="223.241" y1="330.255" x2="198.459" y2="330.255"/>
			
				<line fill="none" stroke="#A8E5FF" stroke-width="1.2962" stroke-linecap="round" stroke-miterlimit="10" x1="220.809" y1="341.533" x2="196.407" y2="341.533"/>
			
				<line fill="none" stroke="#A8E5FF" stroke-width="1.2962" stroke-linecap="round" stroke-miterlimit="10" x1="219.137" y1="352.613" x2="194.669" y2="352.613"/>
		</g>
		<path fill="#3C5A73" d="M234.917,243c0.138,1.117-3.878,2.533-4.938,2.664c-1.059,0.131-2.029-0.669-2.167-1.786
			c-0.139-1.117,0.608-2.13,1.668-2.261C230.539,241.487,234.779,241.883,234.917,243z"/>
	</g>
	
		<rect x="225.408" y="189.873" fill="none" stroke="#D2AFFF" stroke-width="0.8641" stroke-miterlimit="10" width="82.667" height="35.861"/>
	<path opacity="0.4" fill="#6C9BAA" d="M305.092,191.469l-74.595,15.015c-1.78,0.358-3.514-0.794-3.872-2.575l-5.778-28.709
		c-0.358-1.78,0.794-3.514,2.575-3.872l74.594-15.014c1.78-0.358,3.514,0.794,3.872,2.574l5.779,28.709
		C308.025,189.377,306.872,191.11,305.092,191.469z"/>
	<path fill="#EF7A78" d="M305.459,187.795l-74.595,15.014c-1.78,0.358-3.514-0.794-3.872-2.574l-5.779-28.709
		c-0.358-1.78,0.794-3.514,2.575-3.872l74.595-15.015c1.78-0.358,3.514,0.794,3.872,2.575l5.778,28.709
		C308.392,185.704,307.239,187.437,305.459,187.795z"/>
	<polyline fill="none" stroke="#FFFFFF" stroke-width="1.2962" stroke-linecap="round" stroke-miterlimit="10" points="
		222.644,182.406 232.623,166.275 234.44,58.377 291.682,153.989 303.855,163.168 	"/>
	<g>
		<path fill="#41B4E6" d="M147.924,103.511c1.918,1.938,16.536,17.468,15.745,17.957c-0.686,0.424-17.925-11.961-19.844-13.9
			c-1.918-1.938-2.557-4.417-1.425-5.538C143.532,100.91,146.005,101.573,147.924,103.511z"/>
		<path fill="#FAB9AF" d="M168.404,123.63c-1.854-0.861-5.413-4.33-8.905-7.504l-0.872,2.344l5.612,5.175
			C165.481,124.168,167.465,124.239,168.404,123.63z"/>
		<path fill="#FF8C46" d="M168.075,123.407c-1.266,0.449-2.816,0.455-3.929,0.174c0.021,0.407,0.032,1.498,0.045,1.883
			c0.01,0.272,0.216,0.495,0.486,0.527c0,0,8.632,0.057,8.618-0.254C173.197,123.547,168.689,123.763,168.075,123.407z"/>
		<path fill="#FAB9AF" d="M179.045,123.63c-1.854-0.861-5.413-4.33-8.905-7.504l-0.872,2.344l5.612,5.175
			C176.122,124.168,178.106,124.239,179.045,123.63z"/>
		<path fill="#FF8C46" d="M178.716,123.407c-1.266,0.449-2.816,0.455-3.929,0.174c0.021,0.407,0.032,1.498,0.045,1.883
			c0.009,0.272,0.215,0.495,0.486,0.527c0,0,8.631,0.057,8.618-0.254C183.837,123.547,179.33,123.763,178.716,123.407z"/>
		<path fill="#0073AA" d="M154.384,107.47c1.186,1.198,11.885,9.578,17.25,13.267c0.75-0.547,1.215-0.993,1.762-1.742
			c-3.743-4.229-11.756-13.794-13.659-15.772c-2.129-3.065-17.753-11.637-20.856-12.773c-3.347-1.225-6.832-0.11-7.784,2.49
			s0.751,6.146,4.098,7.371C137.361,101.103,153.583,106.66,154.384,107.47z"/>
		<path fill="#00558C" d="M140.324,91.129c-0.562-0.263-1.023-0.464-1.344-0.582c-3.347-1.225-6.833-0.11-7.784,2.49
			c-0.952,2.601,0.75,6.146,4.098,7.371c1.086,0.398,5.713,1.996,10.154,3.591C142.766,100.217,140.897,95.929,140.324,91.129z"/>
		<path fill="#0091C8" d="M149.179,103.32c-1.343-1.934-8.054-6.057-13.606-9.124c-0.784-0.433-1.736-0.358-2.466,0.162
			c-1.648,1.174-3.377,2.242-5.095,3.32c-0.72,0.452-1.128,1.268-1.051,2.114c0.019,0.214,0.034,0.429,0.044,0.645
			c0.012,0.271-0.201,0.192-0.205,0.46c5.136,1.802,16.368,6.006,17.026,6.671c1.186,1.198,11.975,9.74,17.341,13.429
			c1.111-0.392,1.696-0.944,2.288-1.602C159.711,115.166,151.082,105.299,149.179,103.32z"/>
		<path fill="#FA968C" d="M126.417,70.027c6.456,5.984,20.219,6.635,28.998,6.305c0.997-0.038,1.087,1.3,0.215,1.467
			c-10.322,1.98-24.11,2.5-32.532-3.786c-2.749-2.052,0.354-6.217,3.107-4.163C126.279,69.905,126.352,69.966,126.417,70.027z"/>
		<path fill="#AAC85A" d="M131.651,72.786c-0.945-0.465-4.622-2.283-5.358-2.854l-0.037-0.029c-0.059-0.045-0.12-0.088-0.184-0.13
			c-1.206-0.775-2.812-0.427-3.587,0.778c-0.776,1.205-0.428,2.812,0.778,3.587c1.131,0.728,2.137,1.276,3.244,1.827
			c0.741,0.358,1.498,0.683,2.262,0.993C128.901,76.415,131.658,72.789,131.651,72.786z"/>
		<path fill="#FAB9AF" d="M138.292,90.71l-11.493,10.187c-1.387-0.499-2.659-5.609-4.898-10.261
			c-2.421-5.03-5.262-10.486-6.812-13.426c-0.64-1.213-0.198-2.712,0.997-3.387l7.202-4.07c1.11-0.627,2.513-0.303,3.229,0.752
			c1.483,2.183,3.556,7.254,6.085,10.973C135.168,85.251,138.292,90.71,138.292,90.71z"/>
		<path fill="#82BE50" d="M123.355,69.715l-1.17,0.662c0.126,1.173-0.324,2.39-1.662,3.146c-1.34,0.757-2.614,0.516-3.553-0.198
			l-1.068,0.604c-1.092,0.617-1.498,1.986-0.912,3.095c1.525,2.89,4.438,8.475,6.912,13.614c2.239,4.651,3.37,9.511,4.898,10.261
			c5.121-3.53,11.646-7.157,12.251-10.377c0,0-7.967-11.761-12.578-20.078C125.876,69.366,124.426,69.109,123.355,69.715z"/>
		<path fill="#FA968C" d="M157.606,77.834c0,0-1.981,0.9-2.457,0.386s-0.7-0.946,0.022-1.666c0.722-0.719,2.055-1.362,2.932-1.588
			c0.876-0.226,2.505,0.017,2.662,0.158c0.573,0.514-1.058,0.755-1.842,0.911c-0.784,0.156-1.654,0.409-1.472,0.765
			c0.182,0.356,1.661-0.055,2.003,0.285C159.798,77.425,157.606,77.834,157.606,77.834z"/>
		<path fill="#A56941" d="M118.128,68.779l-0.156,0.029c-1.188,0.225-2.334-0.556-2.56-1.745l-0.602-3.181l2.308-0.437
			L118.128,68.779z"/>
		<g>
			<polygon fill="#FAB9AF" points="121.768,71.938 118.123,73.45 117.744,73.007 117.941,68.273 120.906,68.083 			"/>
		</g>
		<path fill="#FA968C" d="M120.906,68.083l-2.965,0.19l-0.079,1.901c0.787,0.608,1.7,1.263,2.754,1.063
			c0.334-0.063,0.65-0.252,0.892-0.478L120.906,68.083z"/>
		<path fill="#FAB9AF" d="M120.449,70.209L120.449,70.209c-1.955,0.37-3.839-0.915-4.209-2.87l-0.746-3.943l6.07-1.149
			c0,0,0.583,3.078,0.534,5.239C122.061,69.108,121.445,70.02,120.449,70.209z"/>
		
			<rect x="115.495" y="64.858" transform="matrix(0.9826 -0.1859 0.1859 0.9826 -10.0833 22.7153)" fill="#A56941" width="1.161" height="0.527"/>
		<path fill="#FAB9AF" d="M117.128,66.399c0.146,0.769-0.104,1.462-0.559,1.548c-0.455,0.086-1.146-0.827-1.292-1.597
			c-0.146-0.77,0.31-1.103,0.765-1.189C116.496,65.076,116.982,65.629,117.128,66.399z"/>
		<path fill="#A56941" d="M122.292,63.789c0.049-0.518-0.019-1.04-0.199-1.528c0,0-0.309-1.765-1.062-1.969
			c-0.687-0.186-1.684,0.408-2.338,0.686c-0.48,0.204-2.049,0.387-2.049,0.387c-1.231,0.232-2.041,1.419-1.808,2.65l0.09,0.478
			l1.184,0.738l0.464,0.872l0.081-0.015c0.391-0.074,0.653-0.439,0.604-0.828c-0.08-0.643,0.258-1.257,0.894-1.377l1.818-0.344
			c1.107-0.21,1.795,0.275,1.951,1.104l0.076,0.711L122.292,63.789z"/>
		
			<line fill="none" stroke="#FFFFFF" stroke-width="1.2962" stroke-miterlimit="10" x1="221.951" y1="49.572" x2="132.42" y2="87.907"/>
		<path fill="#FAB9AF" d="M124.471,79.949c3.2,1.835,6.221,2.382,9.472,2.712c5.607,0.677,15.552-2.739,14.551-2.436
			c0.854-0.259,1.348,0.947,0.563,1.364c-4.416,2.348-10.445,4.809-15.103,4.844l-2.365,0.042
			c-7.755-0.287-14.25-4.292-17.112-8.385c-0.819-1.171-0.533-2.785,0.639-3.604C118.021,72.455,118.757,76.697,124.471,79.949z"/>
		<g>
			<path fill="#AAC85A" d="M122.354,78.379c-2.188-1.752-3.644-3.424-3.671-3.455l0.049,0.06l-1.433-1.082
				c0,0-1.524-0.563-2.96,1.287c-1.146,1.478,0.161,3.081,0.161,3.081c0.176,0.227,0.961,2.25,5.167,4.626
				C119.667,82.896,122.661,78.625,122.354,78.379z"/>
		</g>
		<path fill="#FAB9AF" d="M150.159,79.396c0,0-2.131,0.438-2.213,1.134c-0.082,0.695-0.009,1.176,0.998,1.333
			c1.007,0.157,2.463-0.107,3.305-0.441c0.841-0.333,2.016-1.488,2.06-1.694c0.161-0.752-1.3,0.012-2.025,0.347
			c-0.726,0.335-1.578,0.643-1.641,0.248c-0.062-0.395,1.375-0.933,1.453-1.409S150.159,79.396,150.159,79.396z"/>
	</g>
	<circle fill="#55C7A6" cx="301.845" cy="240.674" r="2.646"/>
	<circle fill="#55C7A6" cx="301.845" cy="258.758" r="2.646"/>
	<g>
		<path fill="#FFFFFF" d="M326.788,287.926c0,0,0.692,1.562,0.18,3.155c-0.513,1.594-0.196,3.566,1.131,5.011
			c0,0,0.256-2.256,0.705-3.336S328.958,288.496,326.788,287.926z"/>
		<path fill="#FFF0F2" d="M330.262,287.245c0,0-2.377,1.496-2.088,3.512c0,0-1.27-0.899-1.557-3.996
			C326.419,284.615,330.262,287.245,330.262,287.245z"/>
		<path fill="#FFFFFF" d="M343.275,296.635c-1.188-0.525-2.176-1.425-2.65-2.634c-0.77-1.957-2.188-3.497-3.937-4.251
			c-0.867-0.374-1.44-1.21-1.44-2.153l0,0h-2.349v1.792c-3.229,0.729-5.666,4.025-5.666,7.985c0,4.34,2.929,7.876,6.616,8.116
			c0.523,3.896,3.419,6.881,6.923,6.881c3.874,0,7.015-3.645,7.015-8.14C347.787,300.76,345.913,297.803,343.275,296.635z"/>
		<g>
			<path fill="#FAB9AF" d="M329.75,299.732c-0.029,0.258-0.063,0.413-0.096,0.578c-0.031,0.171-0.07,0.33-0.113,0.483
				c-0.08,0.312-0.169,0.62-0.283,0.917c-0.2,0.602-0.481,1.186-0.797,1.75c-0.637,1.135-1.596,2.142-2.692,2.935
				c-0.581,0.336-1.184,0.679-1.8,0.892c-0.627,0.156-1.261,0.408-1.874,0.434c-0.61,0.031-1.239,0.118-1.82,0.07
				c-0.578-0.06-1.151-0.138-1.718-0.215c-2.181-0.504-4.157-1.286-5.941-2.312l-1.331-0.769c-0.449-0.246-0.879-0.515-1.283-0.821
				l-2.46-1.753c-0.334-0.238-0.412-0.701-0.174-1.035c0.207-0.291,0.586-0.388,0.9-0.25l0.053,0.023
				c1.793,0.782,3.549,1.605,5.357,2.181c1.791,0.619,3.609,1.01,5.316,1.108c1.709,0.052,3.185-0.356,4.07-1.188
				c0.425-0.451,0.813-0.928,1.059-1.565c0.119-0.314,0.251-0.633,0.319-0.979c0.05-0.168,0.077-0.338,0.102-0.507
				c0.016-0.086,0.027-0.168,0.03-0.24c0.008-0.078,0.016-0.165,0.009-0.153c0.114-1.427,1.364-2.491,2.792-2.376
				C328.802,297.056,329.865,298.306,329.75,299.732z"/>
		</g>
		<path fill="#FAB9AF" d="M324.312,321.974c2.259,2.591,15.294,3.673,15.294,3.673c0.963-1.117-3.521-13.862-3.521-13.862
			s2.159-9.199,2.062-12.521c-0.04-1.371-1.162-2.459-2.533-2.459h-8.272c-1.275,0-2.337,0.973-2.441,2.244
			c-0.217,2.63,3.219,12.447,3.219,12.447S322.36,319.733,324.312,321.974z"/>
		<path fill="#FA968C" d="M331.453,372.237c-0.084,0.173-0.092,0.373-0.022,0.553c0.069,0.179,0.209,0.321,0.388,0.394
			c1.615,0.656,2.252,0.444,3.193-0.211l-0.006-7.837l-1.547-2.339c-0.36-0.545-1.206-0.222-1.114,0.425
			c0.461,3.249,0.897,8.199-0.655,8.537C331.685,371.76,331.574,371.987,331.453,372.237z"/>
		<path fill="#965028" d="M333.066,372.612c-0.39-0.047-1.258-0.465-1.422-0.794c-3.278,0.284-4.851,1.362-4.851,2.32
			c0.144,0.233,5.761,0.041,7.859-0.015c0.438-0.012,0.615-0.431,0.54-0.863l-0.15-1.232
			C334.743,372.417,334.069,372.731,333.066,372.612z"/>
		<path fill="#FAB9AF" d="M355.576,335.18c-6.257,1.724-16.905,5.178-18.625,6.058c-2.428,1.242-3.161,3.593-2.437,5.011
			c0.726,1.418,2.635,1.365,5.062,0.123c1.674-0.855,11.408-6.387,16.905-9.71C356.272,336.028,355.756,335.819,355.576,335.18z"/>
		<path fill="#FAB9AF" d="M361.176,335.788c0.191-0.003,0.374-0.085,0.504-0.228c0.129-0.143,0.193-0.331,0.178-0.523
			c-0.137-1.737-0.611-2.212-1.619-2.761c-2.212,1.278-4.415,2.57-7.907,3.862l0,0c-0.598,1.212,0.723,2.466,1.904,1.811
			c2.61-1.446,5.677-2.89,6.406-2.158C360.645,335.795,360.897,335.792,361.176,335.788z"/>
		<path fill="#965028" d="M360.787,334.178c0.134,0.369,0.148,1.332-0.071,1.627c1.723,2.804,3.391,3.726,4.247,3.297
			c0.145-0.232-2.544-5.168-3.535-7.02c-0.207-0.388-0.66-0.357-1.014-0.096l-1.034,0.687
			C359.862,332.766,360.445,333.228,360.787,334.178z"/>
		<path fill="#FA968C" d="M332.68,365.227c0.701,0.418,1.589,0.331,2.291,0.746c0.158-6.55-0.029-17.212-0.358-19.063
			c-0.478-2.685-2.136-4.636-3.703-4.356c-1.568,0.278-2.452,2.682-1.975,5.366C329.234,349.607,331.144,358.955,332.68,365.227z"/>
		<path fill="#FA968C" d="M324.56,324.189c0.203,3.559,3.404,25.983,6.17,25.825c2.765-0.158,4.046-22.84,3.842-26.398
			s-2.61-6.315-5.375-6.157S324.355,320.631,324.56,324.189z"/>
		<path fill="#FAB9AF" d="M328.811,323.347c0.061,3.564,4.06,23.874,6.828,23.826c2.77-0.048,3.758-20.515,3.696-24.079
			c-0.062-3.563-2.854-6.334-5.622-6.286S328.749,319.782,328.811,323.347z"/>
		<g>
			<polygon fill="#FAB9AF" points="330.262,297.374 334.015,296.98 332.827,292.873 330.399,293.174 			"/>
		</g>
		<path fill="#FA968C" d="M330.399,293.174l2.428-0.301l0.371,1.282c-0.544,0.613-1.242,1.937-2.125,1.937
			c-0.28,0-0.536-0.079-0.766-0.225L330.399,293.174z"/>
		<path fill="#FAB9AF" d="M330.316,295.159c0.824,0,1.715-0.413,2.943-1.485c0.705-0.616,1.227-1.689,1.227-2.415v-4.014h-6.178
			c0,0-0.464,2.131-0.014,4.245C328.633,293.077,329.668,295.159,330.316,295.159z"/>
		<rect x="333.655" y="288.785" fill="#FFFFFF" width="1.161" height="0.526"/>
		<path fill="#FAB9AF" d="M333.439,290.499c0,0.783,0.375,1.418,0.837,1.418s0.972-1.026,0.972-1.809
			c0-0.783-0.51-1.026-0.972-1.026S333.439,289.717,333.439,290.499z"/>
		<path fill="#FFFFFF" d="M332.979,285.463l-2.085,0.001c-0.568,0.001-1.12-0.141-1.609-0.403c-0.789-0.422-1.783-0.301-2.293,0.435
			c-0.504,0.728-0.681,1.679,0.65,2.562c0.685,0.453,1.684-0.05,2.351,0.169c0.041-0.002,0.077-0.009,0.12-0.009h1.851
			c0.647,0,1.094,0.541,1.135,1.187c0.024,0.392,0.35,0.701,0.748,0.701h0.081l0.295-0.942l1.025-0.945v-0.486
			C335.248,286.479,334.232,285.463,332.979,285.463z"/>
		<path fill="#FAB9AF" d="M305.597,301.877c0,0,2.094,0.594,2.487,0.016c0.394-0.579,0.551-1.039-0.27-1.644
			c-0.821-0.604-2.235-1.041-3.136-1.134s-2.476,0.39-2.609,0.553c-0.49,0.593,1.159,0.589,1.957,0.626
			c0.799,0.037,1.696,0.158,1.57,0.538c-0.127,0.379-1.65,0.192-1.939,0.579C303.369,301.798,305.597,301.877,305.597,301.877z"/>
		<circle fill="#55C7A6" cx="303.438" cy="303.988" r="4.969"/>
		<path fill="#FAB9AF" d="M305.617,307.211c0,0,2.106-0.544,2.486,0.045c0.379,0.588,0.525,1.052-0.31,1.636
			c-0.836,0.584-2.26,0.986-3.162,1.058c-0.902,0.07-2.465-0.45-2.596-0.616c-0.475-0.604,1.173-0.561,1.972-0.578
			c0.8-0.019,1.7-0.117,1.583-0.5c-0.117-0.382-1.646-0.232-1.925-0.626C303.388,307.235,305.617,307.211,305.617,307.211z"/>
		<path fill="#FF8C46" d="M336.747,312.611c-0.391-0.444-0.536-1.046-0.415-1.625c0.57-2.746,1.884-9.376,1.811-11.937
			c-0.036-1.253-1.062-2.245-2.316-2.245H334.6c-0.468,1.084-1.457,1.921-2.996,1.921c-1.537,0-2.527-0.837-2.995-1.921h-1.152
			c1.122,2.401,0.877,5.489-0.734,7.589c-0.375,0.488-0.494,1.125-0.32,1.715c0.464,1.574,0.94,3.054,1.273,4.063
			c0.227,0.688,0.046,1.432-0.465,1.946c-3.504,3.53-5.923,11.018-5.923,19.688c0,0.738,0.02,1.466,0.056,2.185
			c0.052,1.028,0.901,1.835,1.932,1.835h16.95c1.03,0,1.879-0.807,1.932-1.835c0.036-0.719,0.056-1.446,0.056-2.185
			C342.212,323.52,340.002,316.315,336.747,312.611z"/>
		<path fill="#EB7731" d="M337.047,307.179c0.427-2.207,0.869-4.769,1.033-6.631c-1.485,4.41-5.521,7.769-10.246,8.253
			c1.029,0.418,2.455,0.945,3.833,1.44C334.02,311.085,336.572,309.632,337.047,307.179z"/>
		<path fill="#FFFFFF" d="M328.615,287.697c0.368,0.827,0.202,1.372,3.134,2.072c2.933,0.7,3.645-0.092,4.782,1.168
			c0,0-0.88-2.34-2.517-2.809c-1.638-0.468-4.283-0.378-5.508-2.106C328.507,286.022,328.363,287.132,328.615,287.697z"/>
		<g>
			<path fill="#FAB9AF" d="M339.097,299.883c-0.146,0.793-0.292,1.105-0.476,1.588c-0.193,0.427-0.397,0.836-0.627,1.221
				c-0.244,0.366-0.474,0.754-0.743,1.09c-0.275,0.33-0.549,0.662-0.835,0.98c-0.618,0.56-1.218,1.166-1.898,1.596
				c-0.333,0.231-0.663,0.469-1,0.687l-1.042,0.558c-2.816,1.396-5.742,2.029-8.613,2.356c-2.875,0.205-5.71,0.24-8.495-0.062
				c-1.387-0.182-2.78-0.26-4.145-0.527c-1.364-0.264-2.726-0.508-4.076-0.791c-0.401-0.085-0.659-0.479-0.574-0.881
				c0.072-0.347,0.376-0.586,0.716-0.591h0.042c1.364-0.021,2.717-0.003,4.065-0.003c1.349,0.024,2.689-0.097,4.023-0.137l1-0.044
				l0.99-0.111l1.972-0.194c0.661-0.042,1.299-0.184,1.941-0.294c0.64-0.118,1.282-0.22,1.914-0.35
				c2.489-0.605,4.908-1.376,6.883-2.608l0.739-0.448l0.652-0.518c0.465-0.32,0.785-0.737,1.168-1.101
				c0.147-0.207,0.309-0.4,0.467-0.596c0.154-0.197,0.255-0.41,0.393-0.609c0.112-0.202,0.204-0.411,0.29-0.604l0.106-0.277
				l0.027-0.102l0.015-0.044c-0.006,0.021-0.009,0.042-0.01,0.063c0.208-1.417,1.524-2.396,2.94-2.188
				C338.324,297.149,339.305,298.467,339.097,299.883z"/>
		</g>
	</g>
	<circle fill="none" stroke="#D2AFFF" stroke-width="2" stroke-miterlimit="10" cx="225.085" cy="58.377" r="9.355"/>
	<circle fill="none" stroke="#D2AFFF" stroke-width="2" stroke-miterlimit="10" cx="225.085" cy="58.377" r="3.852"/>
</g>
</svg>
